<?xml version="1.0" standalone="no"?>
<!DOCTYPE svg PUBLIC "-//W3C//DTD SVG 20010904//EN"
 "http://www.w3.org/TR/2001/REC-SVG-20010904/DTD/svg10.dtd">
<svg version="1.0" xmlns="http://www.w3.org/2000/svg"
 width="811.000000pt" height="568.000000pt" viewBox="0 0 811.000000 568.000000"
 preserveAspectRatio="xMidYMid meet">
<metadata>
Created by potrace 1.15, written by Peter Selinger 2001-2017
</metadata>
<g transform="translate(0.000000,568.000000) scale(0.100000,-0.100000)"
fill="#000000" stroke="none">
<path d="M0 2840 l0 -2840 4055 0 4055 0 0 2840 0 2840 -4055 0 -4055 0 0
-2840z m7960 -40 l0 -2700 -3885 0 -3885 0 0 2700 0 2700 3885 0 3885 0 0
-2700z"/>
<path d="M200 2800 l0 -2690 3875 0 3875 0 0 2690 0 2690 -3875 0 -3875 0 0
-2690z m3708 988 c8 -8 12 -50 12 -125 0 -101 -2 -113 -19 -123 -28 -14 -224
-13 -239 2 -17 17 -17 229 0 246 17 17 229 17 246 0z m-313 -198 l0 -105 -104
-3 c-77 -2 -107 1 -113 10 -9 15 -11 169 -2 193 5 13 22 15 113 13 l106 -3 0
-105z m1630 24 c39 -7 103 -24 143 -35 60 -18 72 -25 72 -43 0 -46 -71 -276
-85 -276 -2 0 -45 14 -94 30 -162 55 -302 51 -363 -10 -24 -24 -28 -37 -28
-81 0 -46 4 -55 34 -83 21 -20 85 -53 171 -89 177 -73 251 -115 309 -174 76
-77 107 -165 107 -301 0 -195 -88 -341 -254 -422 -90 -43 -167 -60 -298 -67
-139 -7 -246 7 -386 49 -114 35 -111 30 -92 120 8 40 57 222 63 235 1 1 48
-15 106 -34 98 -34 113 -37 230 -37 106 -1 131 2 164 19 82 41 99 150 35 213
-19 19 -72 46 -142 72 -172 66 -244 106 -307 169 -84 84 -119 173 -120 301 0
110 37 219 101 302 58 73 187 138 314 158 74 11 226 4 320 -16z m1115 -583 c0
-347 -4 -600 -10 -631 -33 -176 -154 -291 -342 -327 -90 -17 -220 -14 -317 7
l-54 12 6 107 c4 58 13 126 20 151 l14 45 96 -4 c119 -4 158 8 189 57 23 37
23 40 26 435 l3 397 -108 0 c-59 0 -115 5 -123 10 -12 7 -15 35 -15 147 0 76
3 146 7 156 7 16 31 17 308 17 l300 0 0 -579z m-2502 351 l3 -93 -93 3 -93 3
-3 78 c-4 105 0 109 102 105 l81 -3 3 -93z m-243 15 c4 -12 5 -54 3 -92 l-3
-70 -91 -3 c-104 -3 -104 -4 -104 93 0 95 0 95 101 95 84 0 89 -1 94 -23z
m-475 -62 l0 -65 -370 0 -370 0 0 -330 0 -330 545 0 545 0 0 285 0 285 65 0
65 0 0 -345 0 -345 -675 0 -675 0 0 415 c0 462 1 466 63 484 17 5 206 10 420
10 l387 1 0 -65z m218 56 c9 -5 12 -29 10 -82 l-3 -74 -74 -3 c-87 -3 -91 0
-91 76 0 82 9 92 83 92 34 0 68 -4 75 -9z m-43 -291 l0 -65 -65 0 -65 0 -3 68
-3 68 68 -3 68 -3 0 -65z m390 -872 c99 -215 106 -246 61 -284 l-27 -24 -795
0 -796 0 -30 30 c-41 42 -38 57 67 283 l88 187 672 0 672 0 88 -192z"/>
<path d="M2731 2143 c-22 -86 -42 -78 193 -81 l209 -2 -7 46 c-10 75 -6 74
-207 74 l-178 0 -10 -37z"/>
</g>
</svg>
